#!OML:ASF X:\für Bonn\!DataBase\2005_08_11_Bastian_Final\c3d\Bastian.ASF
:FULLY-SPECIFIED
:DEGREES
192
root -22.386 17.5961 0.232295 100.345 -83.7459 -110.534
lowerback 2.681 0.651758 2.66581
upperback 6.1754 0.704148 -0.224277
thorax 4.92108 0.412054 -1.7181
lowerneck 3.71986 -9.28838 1.66349
upperneck 14.9363 -14.9652 11.3882
head 4.67004 -7.11185 2.71259
rclavicle -1.21259e-014 -1.11319e-014
rhumerus 31.8642 11.6373 -36.6255
rradius 88.5921
rwrist -10.4291
rhand -14.5455 1.6693
rfingers 7.12502
rthumb 11.6031 -27.9895
lclavicle -1.21259e-014 -1.11319e-014
lhumerus -25.3327 -3.51818 86.3779
lradius 10.7396
lwrist 7.28871
lhand -9.48483 -7.58817
lfingers 7.12502
lthumb 16.4797 21.7319
rfemur 0.717407 3.84073 23.698
rtibia 28.398
rfoot -9.83742 -12.2257
rtoes -12.0463
lfemur 4.32151 5.93372 -14.7777
ltibia 22.6818
lfoot -10.1314 -3.2694
ltoes -11.8519
193
root -22.3873 17.5949 0.24764 102.416 -83.6756 -112.633
lowerback 2.63256 0.447965 2.45564
upperback 6.18832 0.422275 -0.0368506
thorax 4.94267 0.256122 -1.41098
lowerneck 3.85542 -9.26593 1.66192
upperneck 15.0209 -14.9445 11.3099
head 4.66719 -7.11112 2.6965
rclavicle -1.49089e-015 -3.18055e-015
rhumerus 30.3927 13.2737 -37.0876
rradius 90.5635
rwrist -10.0183
rhand -14.1197 2.06057
rfingers 7.12502
rthumb 12.0137 -27.5746
lclavicle -1.49089e-015 -3.18055e-015
lhumerus -25.5145 -2.8487 86.4408
lradius 10.4979
lwrist 6.57257
lhand -9.3907 -7.65061
lfingers 7.12502
lthumb 16.5703 21.6619
rfemur 0.680958 3.85362 23.6163
rtibia 28.4599
rfoot -9.86469 -11.9899
rtoes -12.2351
lfemur 4.3912 6.1098 -14.8063
ltibia 22.6661
lfoot -10.1693 -3.22515
ltoes -11.6496
194
root -22.3879 17.5928 0.262368 104.504 -83.5955 -114.759
lowerback 2.61223 0.255573 2.22894
upperback 6.20202 0.155198 0.168985
thorax 4.95377 0.105851 -1.07577
lowerneck 3.91472 -9.24943 1.68547
upperneck 15.118 -14.9281 11.1859
head 4.67598 -7.10838 2.65791
rclavicle 4.52235e-015 -2.38542e-015
rhumerus 28.8727 14.9992 -37.5308
rradius 92.4647
rwrist -9.64117
rhand -13.6043 2.34755
rfingers 7.12502
rthumb 12.5107 -27.2579
lclavicle 4.52235e-015 -2.38542e-015
lhumerus -25.6929 -2.44423 86.6236
lradius 10.2444
lwrist 6.06809
lhand -9.35883 -7.69865
lfingers 7.12502
lthumb 16.601 21.6113
rfemur 0.650755 3.84819 23.5307
rtibia 28.5195
rfoot -9.87356 -11.7496
rtoes -12.4447
lfemur 4.4668 6.21443 -14.849
ltibia 22.6614
lfoot -10.2063 -3.11331
ltoes -11.0899
195
root -22.3884 17.5918 0.277333 106.672 -83.476 -116.973
lowerback 2.59441 0.0870593 2.06199
upperback 6.22981 -0.0816012 0.376717
thorax 4.98401 -0.0267937 -0.771737
lowerneck 3.90682 -9.2417 1.68811
upperneck 15.2424 -14.9326 11.0732
head 4.70771 -7.11188 2.62013
rclavicle -2.88238e-015 1.03368e-014
rhumerus 27.2575 16.7764 -37.96
rradius 94.3467
rwrist -9.35404
rhand -13.0604 2.52426
rfingers 7.12502
rthumb 13.035 -27.0485
lclavicle -2.88238e-015 1.03368e-014
lhumerus -25.8461 -2.09066 86.8468
lradius 9.99904
lwrist 5.59755
lhand -9.33499 -7.78031
lfingers 7.12502
lthumb 16.624 21.5277
rfemur 0.618171 3.84811 23.4681
rtibia 28.5858
rfoot -9.88086 -11.4919
rtoes -12.6553
lfemur 4.55474 6.3691 -14.8597
ltibia 22.6553
lfoot -10.27 -3.03135
ltoes -10.7484
196
root -22.3883 17.5898 0.292103 108.661 -83.3319 -118.988
lowerback 2.58413 -0.0655658 1.96883
upperback 6.2328 -0.295041 0.558431
thorax 4.98768 -0.143621 -0.535567
lowerneck 3.88788 -9.24812 1.72544
upperneck 15.3774 -14.963 10.9763
head 4.74515 -7.12548 2.57979
rclavicle 3.95085e-015 3.97569e-015
rhumerus 25.5335 18.6303 -38.4686
rradius 96.1047
rwrist -9.0963
rhand -12.6291 2.70021
rfingers 7.12502
rthumb 13.4507 -26.8455
lclavicle 3.95085e-015 3.97569e-015
lhumerus -26.0177 -1.83354 87.0281
lradius 9.7644
lwrist 5.09689
lhand -9.31747 -7.86651
lfingers 7.12502
lthumb 16.6408 21.4401
rfemur 0.565551 3.85397 23.4299
rtibia 28.651
rfoot -9.88666 -11.2482
rtoes -12.8395
lfemur 4.61221 6.56679 -14.8364
ltibia 22.6535
lfoot -10.3092 -2.98584
ltoes -10.407
197
root -22.3886 17.5877 0.306725 110.859 -83.1847 -121.234
lowerback 2.58138 -0.209802 1.89923
upperback 6.24958 -0.496269 0.691192
thorax 5.00364 -0.252049 -0.363075
lowerneck 3.90498 -9.23989 1.86497
upperneck 15.4678 -14.965 10.8786
head 4.75474 -7.12456 2.52855
rclavicle -6.13748e-015 2.42517e-014
rhumerus 23.71 20.5395 -39.2146
rradius 97.7074
rwrist -8.77683
rhand -12.2223 2.96119
rfingers 7.12502
rthumb 13.8428 -26.5582
lclavicle -6.13748e-015 2.42517e-014
lhumerus -26.1869 -1.60148 87.1477
lradius 9.54958
lwrist 4.58711
lhand -9.30504 -7.9642
lfingers 7.12502
lthumb 16.6528 21.3414
rfemur 0.530918 3.87053 23.3676
rtibia 28.7233
rfoot -9.90235 -10.9802
rtoes -13.0153
lfemur 4.70454 6.72925 -14.8485
ltibia 22.6473
lfoot -10.3533 -2.88847
ltoes -10.0867
198
root -22.3879 17.587 0.321633 112.926 -83.0528 -123.332
lowerback 2.59038 -0.361845 1.81641
upperback 6.25328 -0.707317 0.830419
thorax 5.00072 -0.366299 -0.176554
lowerneck 3.91677 -9.2255 1.93942
upperneck 15.5712 -14.9633 10.7971
head 4.77434 -7.12331 2.49132
rclavicle -4.84538e-015 1.19271e-015
rhumerus 21.901 22.5233 -40.0289
rradius 99.0803
rwrist -8.44529
rhand -11.8915 3.24322
rfingers 7.12502
rthumb 14.1615 -26.2541
lclavicle -4.84538e-015 1.19271e-015
lhumerus -26.3506 -1.36073 87.2713
lradius 9.32515
lwrist 4.04122
lhand -9.33419 -8.08099
lfingers 7.12502
lthumb 16.6247 21.227
rfemur 0.468005 3.85034 23.274
rtibia 28.8047
rfoot -9.92445 -10.695
rtoes -13.1441
lfemur 4.77235 6.85719 -14.8896
ltibia 22.6371
lfoot -10.4021 -2.76523
ltoes -9.62972
